P3
75 75
255
0
0
0
0
0
0
0
0
0
0
0
0
0
0
0
0
0
0
0
0
0
0
0
0
0
0
0
0
0
0
0
0
0
0
0
0
0
0
0
0
0
0
0
0
0
0
0
0
0
0
0
0
0
0
0
0
0
0
0
0
0
0
0
0
0
0
0
0
0
0
0
0
0
0
0
0
0
0
0
0
0
0
0
0
0
0
0
0
0
0
0
0
0
0
0
0
0
0
0
0
0
0
0
0
0
0
0
0
0
0
0
0
0
0
0
0
0
0
0
0
0
0
0
0
0
0
0
0
0
0
0
0
0
0
0
0
0
0
0
0
0
0
0
0
0
0
0
0
0
0
0
0
0
0
0
0
0
0
0
0
0
0
0
0
0
0
0
0
0
0
0
0
0
0
0
0
0
0
0
0
0
0
0
0
0
0
0
0
0
0
0
0
0
0
0
0
0
0
0
0
0
0
0
0
0
0
0
0
0
0
0
0
0
0
0
0
0
0
0
0
0
0
0
0
0
3
0
0
3
0
0
3
0
0
3
0
0
3
0
0
3
0
0
3
0
0
3
0
0
3
0
0
3
0
0
3
0
0
3
0
0
3
0
0
3
0
0
3
0
0
3
0
0
3
0
0
3
0
0
3
0
0
3
0
0
3
0
0
3
0
0
3
0
0
3
0
0
3
0
0
3
0
0
3
0
0
3
0
0
3
0
0
3
0
0
3
0
0
3
0
0
3
0
0
3
0
0
3
0
0
3
0
0
3
0
0
3
0
0
3
0
0
3
0
0
3
0
0
3
0
0
3
0
0
3
0
0
3
0
0
3
0
0
3
0
0
3
0
0
3
0
0
3
0
0
3
0
0
3
0
0
3
0
0
3
0
0
3
0
0
3
0
0
3
0
0
3
0
0
3
0
0
3
0
0
3
0
0
3
0
0
3
0
0
3
0
0
3
0
0
3
0
0
3
0
0
3
0
0
3
0
0
3
0
0
3
0
0
3
0
0
3
0
0
3
0
0
3
0
0
6
0
0
6
0
0
6
0
0
6
0
0
6
0
0
6
0
0
6
0
0
6
0
0
6
0
0
6
0
0
6
0
0
6
0
0
6
0
0
6
0
0
6
0
0
6
0
0
6
0
0
6
0
0
6
0
0
6
0
0
6
0
0
6
0
0
6
0
0
6
0
0
6
0
0
6
0
0
6
0
0
6
0
0
6
0
0
6
0
0
6
0
0
6
0
0
6
0
0
6
0
0
6
0
0
6
0
0
6
0
0
6
0
0
6
0
0
6
0
0
6
0
0
6
0
0
6
0
0
6
0
0
6
0
0
6
0
0
6
0
0
6
0
0
6
0
0
6
0
0
6
0
0
6
0
0
6
0
0
6
0
0
6
0
0
6
0
0
6
0
0
6
0
0
6
0
0
6
0
0
6
0
0
6
0
0
6
0
0
6
0
0
6
0
0
6
0
0
6
0
0
6
0
0
6
0
0
6
0
0
6
0
0
6
0
0
6
0
0
6
0
0
6
0
0
10
0
0
10
0
0
10
0
0
10
0
0
10
0
0
10
0
0
10
0
0
10
0
0
10
0
0
10
0
0
10
0
0
10
0
0
10
0
0
10
0
0
10
0
0
10
0
0
10
0
0
10
0
0
10
0
0
10
0
0
10
0
0
10
0
0
10
0
0
10
0
0
10
0
0
10
0
0
10
0
0
10
0
0
10
0
0
10
0
0
10
0
0
10
0
0
10
0
0
10
0
0
10
0
0
10
0
0
10
0
0
10
0
0
10
0
0
10
0
0
10
0
0
10
0
0
10
0
0
10
0
0
10
0
0
10
0
0
10
0
0
10
0
0
10
0
0
10
0
0
10
0
0
10
0
0
10
0
0
10
0
0
10
0
0
10
0
0
10
0
0
10
0
0
10
0
0
10
0
0
10
0
0
10
0
0
10
0
0
10
0
0
10
0
0
10
0
0
10
0
0
10
0
0
10
0
0
10
0
0
10
0
0
10
0
0
10
0
0
10
0
0
10
0
0
13
0
0
13
0
0
13
0
0
13
0
0
13
0
0
13
0
0
13
0
0
13
0
0
13
0
0
13
0
0
13
0
0
13
0
0
13
0
0
13
0
0
13
0
0
13
0
0
13
0
0
13
0
0
13
0
0
13
0
0
13
0
0
13
0
0
13
0
0
13
0
0
13
0
0
13
0
0
13
0
0
13
0
0
13
0
0
13
0
0
13
0
0
13
0
0
13
0
0
13
0
0
13
0
0
13
0
0
13
0
0
13
0
0
13
0
0
13
0
0
13
0
0
13
0
0
13
0
0
13
0
0
13
0
0
13
0
0
13
0
0
13
0
0
13
0
0
13
0
0
13
0
0
13
0
0
13
0
0
13
0
0
13
0
0
13
0
0
13
0
0
13
0
0
13
0
0
13
0
0
13
0
0
13
0
0
13
0
0
13
0
0
13
0
0
13
0
0
13
0
0
13
0
0
13
0
0
13
0
0
13
0
0
13
0
0
13
0
0
13
0
0
13
0
0
17
0
0
17
0
0
17
0
0
17
0
0
17
0
0
17
0
0
17
0
0
17
0
0
17
0
0
17
0
0
17
0
0
17
0
0
17
0
0
17
0
0
17
0
0
17
0
0
17
0
0
17
0
0
17
0
0
17
0
0
17
0
0
17
0
0
17
0
0
17
0
0
17
0
0
17
0
0
17
0
0
17
0
0
17
0
0
17
0
0
17
0
0
17
0
0
17
0
0
17
0
0
17
0
0
17
0
0
17
0
0
17
0
0
17
0
0
17
0
0
17
0
0
17
0
0
17
0
0
17
0
0
17
0
0
17
0
0
17
0
0
17
0
0
17
0
0
17
0
0
17
0
0
17
0
0
17
0
0
17
0
0
17
0
0
17
0
0
17
0
0
17
0
0
17
0
0
17
0
0
17
0
0
17
0
0
17
0
0
17
0
0
17
0
0
17
0
0
17
0
0
17
0
0
17
0
0
17
0
0
17
0
0
17
0
0
17
0
0
17
0
0
17
0
0
20
0
0
20
0
0
20
0
0
20
0
0
20
0
0
20
0
0
20
0
0
20
0
0
20
0
0
20
0
0
20
0
0
20
0
0
20
0
0
20
0
0
20
0
0
20
0
0
20
0
0
20
0
0
20
0
0
20
0
0
20
0
0
20
0
0
20
0
0
20
0
0
20
0
0
20
0
0
20
0
0
20
0
0
20
0
0
20
0
0
20
0
0
20
0
0
20
0
0
20
0
0
20
0
0
20
0
0
20
0
0
20
0
0
20
0
0
20
0
0
20
0
0
20
0
0
20
0
0
20
0
0
20
0
0
20
0
0
20
0
0
20
0
0
20
0
0
20
0
0
20
0
0
20
0
0
20
0
0
20
0
0
20
0
0
20
0
0
20
0
0
20
0
0
20
0
0
20
0
0
20
0
0
20
0
0
20
0
0
20
0
0
20
0
0
20
0
0
20
0
0
20
0
0
20
0
0
20
0
0
20
0
0
20
0
0
20
0
0
20
0
0
20
0
0
23
0
0
23
0
0
23
0
0
23
0
0
23
0
0
23
0
0
23
0
0
23
0
0
23
0
0
23
0
0
23
0
0
23
0
0
23
0
0
23
0
0
23
0
0
23
0
0
23
0
0
23
0
0
23
0
0
23
0
0
23
0
0
23
0
0
23
0
0
23
0
0
23
0
0
23
0
0
23
0
0
23
0
0
23
0
0
23
0
0
23
0
0
23
0
0
23
0
0
23
0
0
23
0
0
23
0
0
23
0
0
23
0
0
23
0
0
23
0
0
23
0
0
23
0
0
23
0
0
23
0
0
23
0
0
23
0
0
23
0
0
23
0
0
23
0
0
23
0
0
23
0
0
23
0
0
23
0
0
23
0
0
23
0
0
23
0
0
23
0
0
23
0
0
23
0
0
23
0
0
23
0
0
23
0
0
23
0
0
23
0
0
23
0
0
23
0
0
23
0
0
23
0
0
23
0
0
23
0
0
23
0
0
23
0
0
23
0
0
23
0
0
23
0
0
27
0
0
27
0
0
27
0
0
27
0
0
27
0
0
27
0
0
27
0
0
27
0
0
27
0
0
27
0
0
27
0
0
27
0
0
27
0
0
27
0
0
27
0
0
27
0
0
27
0
0
27
0
0
27
0
0
27
0
0
27
0
0
27
0
0
27
0
0
27
0
0
27
0
0
27
0
0
27
0
0
27
0
0
27
0
0
27
0
0
27
0
0
27
0
0
27
0
0
27
0
0
27
0
0
27
0
0
27
0
0
27
0
0
27
0
0
27
0
0
27
0
0
27
0
0
27
0
0
27
0
0
27
0
0
27
0
0
27
0
0
27
0
0
27
0
0
27
0
0
27
0
0
27
0
0
27
0
0
27
0
0
27
0
0
27
0
0
27
0
0
27
0
0
27
0
0
27
0
0
27
0
0
27
0
0
27
0
0
27
0
0
27
0
0
27
0
0
27
0
0
27
0
0
27
0
0
27
0
0
27
0
0
27
0
0
27
0
0
27
0
0
27
0
0
30
0
0
30
0
0
30
0
0
30
0
0
30
0
0
30
0
0
30
0
0
30
0
0
30
0
0
30
0
0
30
0
0
30
0
0
30
0
0
30
0
0
30
0
0
30
0
0
30
0
0
30
0
0
30
0
0
30
0
0
30
0
0
30
0
0
30
0
0
30
0
0
30
0
0
30
0
0
30
0
0
30
0
0
30
0
0
30
0
0
30
0
0
30
0
0
30
0
0
30
0
0
30
0
0
30
0
0
30
0
0
30
0
0
30
0
0
30
0
0
30
0
0
30
0
0
30
0
0
30
0
0
30
0
0
30
0
0
30
0
0
30
0
0
30
0
0
30
0
0
30
0
0
30
0
0
30
0
0
30
0
0
30
0
0
30
0
0
30
0
0
30
0
0
30
0
0
30
0
0
30
0
0
30
0
0
30
0
0
30
0
0
30
0
0
30
0
0
30
0
0
30
0
0
30
0
0
30
0
0
30
0
0
30
0
0
30
0
0
30
0
0
30
0
0
34
0
0
34
0
0
34
0
0
34
0
0
34
0
0
34
0
0
34
0
0
34
0
0
34
0
0
34
0
0
34
0
0
34
0
0
34
0
0
34
0
0
34
0
0
34
0
0
34
0
0
34
0
0
34
0
0
34
0
0
34
0
0
34
0
0
34
0
0
34
0
0
34
0
0
34
0
0
34
0
0
34
0
0
34
0
0
34
0
0
34
0
0
34
0
0
34
0
0
34
0
0
34
0
0
34
0
0
34
0
0
34
0
0
34
0
0
34
0
0
34
0
0
34
0
0
34
0
0
34
0
0
34
0
0
34
0
0
34
0
0
34
0
0
34
0
0
34
0
0
34
0
0
34
0
0
34
0
0
34
0
0
34
0
0
34
0
0
34
0
0
34
0
0
34
0
0
34
0
0
34
0
0
34
0
0
34
0
0
34
0
0
34
0
0
34
0
0
34
0
0
34
0
0
34
0
0
34
0
0
34
0
0
34
0
0
34
0
0
34
0
0
34
0
0
37
0
0
37
0
0
37
0
0
37
0
0
37
0
0
37
0
0
37
0
0
37
0
0
37
0
0
37
0
0
37
0
0
37
0
0
37
0
0
37
0
0
37
0
0
37
0
0
37
0
0
37
0
0
37
0
0
37
0
0
37
0
0
37
0
0
37
0
0
37
0
0
37
0
0
37
0
0
37
0
0
37
0
0
37
0
0
37
0
0
37
0
0
37
0
0
37
0
0
37
0
0
37
0
0
37
0
0
37
0
0
37
0
0
37
0
0
37
0
0
37
0
0
37
0
0
37
0
0
37
0
0
37
0
0
37
0
0
37
0
0
37
0
0
37
0
0
37
0
0
37
0
0
37
0
0
37
0
0
37
0
0
37
0
0
37
0
0
37
0
0
37
0
0
37
0
0
37
0
0
37
0
0
37
0
0
37
0
0
37
0
0
37
0
0
37
0
0
37
0
0
37
0
0
37
0
0
37
0
0
37
0
0
37
0
0
37
0
0
37
0
0
37
0
0
40
0
0
40
0
0
40
0
0
40
0
0
40
0
0
40
0
0
40
0
0
40
0
0
40
0
0
40
0
0
40
0
0
40
0
0
40
0
0
40
0
0
40
0
0
40
0
0
40
0
0
40
0
0
40
0
0
40
0
0
40
0
0
40
0
0
40
0
0
40
0
0
40
0
0
40
0
0
40
0
0
40
0
0
40
0
0
40
0
0
40
0
0
40
0
0
40
0
0
40
0
0
40
0
0
40
0
0
40
0
0
40
0
0
40
0
0
40
0
0
40
0
0
40
0
0
40
0
0
40
0
0
40
0
0
40
0
0
40
0
0
40
0
0
40
0
0
40
0
0
40
0
0
40
0
0
40
0
0
40
0
0
40
0
0
40
0
0
40
0
0
40
0
0
40
0
0
40
0
0
40
0
0
40
0
0
40
0
0
40
0
0
40
0
0
40
0
0
40
0
0
40
0
0
40
0
0
40
0
0
40
0
0
40
0
0
40
0
0
40
0
0
40
0
0
44
0
0
44
0
0
44
0
0
44
0
0
44
0
0
44
0
0
44
0
0
44
0
0
44
0
0
44
0
0
44
0
0
44
0
0
44
0
0
44
0
0
44
0
0
44
0
0
44
0
0
44
0
0
44
0
0
44
0
0
44
0
0
44
0
0
44
0
0
44
0
0
44
0
0
44
0
0
44
0
0
44
0
0
44
0
0
44
0
0
44
0
0
44
0
0
44
0
0
44
0
0
44
0
0
44
0
0
44
0
0
44
0
0
44
0
0
44
0
0
44
0
0
44
0
0
44
0
0
44
0
0
44
0
0
44
0
0
44
0
0
44
0
0
44
0
0
44
0
0
44
0
0
44
0
0
44
0
0
44
0
0
44
0
0
44
0
0
44
0
0
44
0
0
44
0
0
44
0
0
44
0
0
44
0
0
44
0
0
44
0
0
44
0
0
44
0
0
44
0
0
44
0
0
44
0
0
44
0
0
44
0
0
44
0
0
44
0
0
44
0
0
44
0
0
47
0
0
47
0
0
47
0
0
47
0
0
47
0
0
47
0
0
47
0
0
47
0
0
47
0
0
47
0
0
47
0
0
47
0
0
47
0
0
47
0
0
47
0
0
47
0
0
47
0
0
47
0
0
47
0
0
47
0
0
47
0
0
47
0
0
47
0
0
47
0
0
47
0
0
47
0
0
47
0
0
47
0
0
47
0
0
47
0
0
47
0
0
47
0
0
47
0
0
47
0
0
47
0
0
47
0
0
47
0
0
47
0
0
47
0
0
47
0
0
47
0
0
47
0
0
47
0
0
47
0
0
47
0
0
47
0
0
47
0
0
47
0
0
47
0
0
47
0
0
47
0
0
47
0
0
47
0
0
47
0
0
47
0
0
47
0
0
47
0
0
47
0
0
47
0
0
47
0
0
47
0
0
47
0
0
47
0
0
47
0
0
47
0
0
47
0
0
47
0
0
47
0
0
47
0
0
47
0
0
47
0
0
47
0
0
47
0
0
47
0
0
47
0
0
51
0
0
51
0
0
51
0
0
51
0
0
51
0
0
51
0
0
51
0
0
51
0
0
51
0
0
51
0
0
51
0
0
51
0
0
51
0
0
51
0
0
51
0
0
51
0
0
51
0
0
51
0
0
51
0
0
51
0
0
51
0
0
51
0
0
51
0
0
51
0
0
51
0
0
51
0
0
51
0
0
51
0
0
51
0
0
51
0
0
51
0
0
51
0
0
51
0
0
51
0
0
51
0
0
51
0
0
51
0
0
51
0
0
51
0
0
51
0
0
51
0
0
51
0
0
51
0
0
51
0
0
51
0
0
51
0
0
51
0
0
51
0
0
51
0
0
51
0
0
51
0
0
51
0
0
51
0
0
51
0
0
51
0
0
51
0
0
51
0
0
51
0
0
51
0
0
51
0
0
51
0
0
51
0
0
51
0
0
51
0
0
51
0
0
51
0
0
51
0
0
51
0
0
51
0
0
51
0
0
51
0
0
51
0
0
51
0
0
51
0
0
51
0
0
54
0
0
54
0
0
54
0
0
54
0
0
54
0
0
54
0
0
54
0
0
54
0
0
54
0
0
54
0
0
54
0
0
54
0
0
54
0
0
54
0
0
54
0
0
54
0
0
54
0
0
54
0
0
54
0
0
54
0
0
54
0
0
54
0
0
54
0
0
54
0
0
54
0
0
54
0
0
54
0
0
54
0
0
54
0
0
54
0
0
54
0
0
54
0
0
54
0
0
54
0
0
54
0
0
54
0
0
54
0
0
54
0
0
54
0
0
54
0
0
54
0
0
54
0
0
54
0
0
54
0
0
54
0
0
54
0
0
54
0
0
54
0
0
54
0
0
54
0
0
54
0
0
54
0
0
54
0
0
54
0
0
54
0
0
54
0
0
54
0
0
54
0
0
54
0
0
54
0
0
54
0
0
54
0
0
54
0
0
54
0
0
54
0
0
54
0
0
54
0
0
54
0
0
54
0
0
54
0
0
54
0
0
54
0
0
54
0
0
54
0
0
54
0
0
57
0
0
57
0
0
57
0
0
57
0
0
57
0
0
57
0
0
57
0
0
57
0
0
57
0
0
57
0
0
57
0
0
57
0
0
57
0
0
57
0
0
57
0
0
57
0
0
57
0
0
57
0
0
57
0
0
57
0
0
57
0
0
57
0
0
57
0
0
57
0
0
57
0
0
57
0
0
57
0
0
57
0
0
57
0
0
57
0
0
57
0
0
57
0
0
57
0
0
57
0
0
57
0
0
57
0
0
57
0
0
57
0
0
57
0
0
57
0
0
57
0
0
57
0
0
57
0
0
57
0
0
57
0
0
57
0
0
57
0
0
57
0
0
57
0
0
57
0
0
57
0
0
57
0
0
57
0
0
57
0
0
57
0
0
57
0
0
57
0
0
57
0
0
57
0
0
57
0
0
57
0
0
57
0
0
57
0
0
57
0
0
57
0
0
57
0
0
57
0
0
57
0
0
57
0
0
57
0
0
57
0
0
57
0
0
57
0
0
57
0
0
57
0
0
61
0
0
61
0
0
61
0
0
61
0
0
61
0
0
61
0
0
61
0
0
61
0
0
61
0
0
61
0
0
61
0
0
61
0
0
61
0
0
61
0
0
61
0
0
61
0
0
61
0
0
61
0
0
61
0
0
61
0
0
61
0
0
61
0
0
61
0
0
61
0
0
61
0
0
61
0
0
61
0
0
61
0
0
61
0
0
61
0
0
61
0
0
61
0
0
61
0
0
61
0
0
61
0
0
61
0
0
61
0
0
61
0
0
61
0
0
61
0
0
61
0
0
61
0
0
61
0
0
61
0
0
61
0
0
61
0
0
61
0
0
61
0
0
61
0
0
61
0
0
61
0
0
61
0
0
61
0
0
61
0
0
61
0
0
61
0
0
61
0
0
61
0
0
61
0
0
61
0
0
61
0
0
61
0
0
61
0
0
61
0
0
61
0
0
61
0
0
61
0
0
61
0
0
61
0
0
61
0
0
61
0
0
61
0
0
61
0
0
61
0
0
61
0
0
64
0
0
64
0
0
64
0
0
64
0
0
64
0
0
64
0
0
64
0
0
64
0
0
64
0
0
64
0
0
64
0
0
64
0
0
64
0
0
64
0
0
64
0
0
64
0
0
64
0
0
64
0
0
64
0
0
64
0
0
64
0
0
64
0
0
64
0
0
64
0
0
64
0
0
64
0
0
64
0
0
64
0
0
64
0
0
64
0
0
64
0
0
64
0
0
64
0
0
64
0
0
64
0
0
64
0
0
64
0
0
64
0
0
64
0
0
64
0
0
64
0
0
64
0
0
64
0
0
64
0
0
64
0
0
64
0
0
64
0
0
64
0
0
64
0
0
64
0
0
64
0
0
64
0
0
64
0
0
64
0
0
64
0
0
64
0
0
64
0
0
64
0
0
64
0
0
64
0
0
64
0
0
64
0
0
64
0
0
64
0
0
64
0
0
64
0
0
64
0
0
64
0
0
64
0
0
64
0
0
64
0
0
64
0
0
64
0
0
64
0
0
64
0
0
68
0
0
68
0
0
68
0
0
68
0
0
68
0
0
68
0
0
68
0
0
68
0
0
68
0
0
68
0
0
68
0
0
68
0
0
68
0
0
68
0
0
68
0
0
68
0
0
68
0
0
68
0
0
68
0
0
68
0
0
68
0
0
68
0
0
68
0
0
68
0
0
68
0
0
68
0
0
68
0
0
68
0
0
68
0
0
68
0
0
68
0
0
68
0
0
68
0
0
68
0
0
68
0
0
68
0
0
68
0
0
68
0
0
68
0
0
68
0
0
68
0
0
68
0
0
68
0
0
68
0
0
68
0
0
68
0
0
68
0
0
68
0
0
68
0
0
68
0
0
68
0
0
68
0
0
68
0
0
68
0
0
68
0
0
68
0
0
68
0
0
68
0
0
68
0
0
68
0
0
68
0
0
68
0
0
68
0
0
68
0
0
68
0
0
68
0
0
68
0
0
68
0
0
68
0
0
68
0
0
68
0
0
68
0
0
68
0
0
68
0
0
68
0
0
71
0
0
71
0
0
71
0
0
71
0
0
71
0
0
71
0
0
71
0
0
71
0
0
71
0
0
71
0
0
71
0
0
71
0
0
71
0
0
71
0
0
71
0
0
71
0
0
71
0
0
71
0
0
71
0
0
71
0
0
71
0
0
71
0
0
71
0
0
71
0
0
71
0
0
71
0
0
71
0
0
71
0
0
71
0
0
71
0
0
71
0
0
71
0
0
71
0
0
71
0
0
71
0
0
71
0
0
71
0
0
71
0
0
71
0
0
71
0
0
71
0
0
71
0
0
71
0
0
71
0
0
71
0
0
71
0
0
71
0
0
71
0
0
71
0
0
71
0
0
71
0
0
71
0
0
71
0
0
71
0
0
71
0
0
71
0
0
71
0
0
71
0
0
71
0
0
71
0
0
71
0
0
71
0
0
71
0
0
71
0
0
71
0
0
71
0
0
71
0
0
71
0
0
71
0
0
71
0
0
71
0
0
71
0
0
71
0
0
71
0
0
71
0
0
74
0
0
74
0
0
74
0
0
74
0
0
74
0
0
74
0
0
74
0
0
74
0
0
74
0
0
74
0
0
74
0
0
74
0
0
74
0
0
74
0
0
74
0
0
74
0
0
74
0
0
74
0
0
74
0
0
74
0
0
74
0
0
74
0
0
74
0
0
74
0
0
74
0
0
74
0
0
74
0
0
74
0
0
74
0
0
74
0
0
74
0
0
74
0
0
74
0
0
74
0
0
74
0
0
74
0
0
74
0
0
74
0
0
74
0
0
74
0
0
74
0
0
74
0
0
74
0
0
74
0
0
74
0
0
74
0
0
74
0
0
74
0
0
74
0
0
74
0
0
74
0
0
74
0
0
74
0
0
74
0
0
74
0
0
74
0
0
74
0
0
74
0
0
74
0
0
74
0
0
74
0
0
74
0
0
74
0
0
74
0
0
74
0
0
74
0
0
74
0
0
74
0
0
74
0
0
74
0
0
74
0
0
74
0
0
74
0
0
74
0
0
74
0
0
78
0
0
78
0
0
78
0
0
78
0
0
78
0
0
78
0
0
78
0
0
78
0
0
78
0
0
78
0
0
78
0
0
78
0
0
78
0
0
78
0
0
78
0
0
78
0
0
78
0
0
78
0
0
78
0
0
78
0
0
78
0
0
78
0
0
78
0
0
78
0
0
78
0
0
78
0
0
78
0
0
78
0
0
78
0
0
78
0
0
78
0
0
78
0
0
78
0
0
78
0
0
78
0
0
78
0
0
78
0
0
78
0
0
78
0
0
78
0
0
78
0
0
78
0
0
78
0
0
78
0
0
78
0
0
78
0
0
78
0
0
78
0
0
78
0
0
78
0
0
78
0
0
78
0
0
78
0
0
78
0
0
78
0
0
78
0
0
78
0
0
78
0
0
78
0
0
78
0
0
78
0
0
78
0
0
78
0
0
78
0
0
78
0
0
78
0
0
78
0
0
78
0
0
78
0
0
78
0
0
78
0
0
78
0
0
78
0
0
78
0
0
78
0
0
81
0
0
81
0
0
81
0
0
81
0
0
81
0
0
81
0
0
81
0
0
81
0
0
81
0
0
81
0
0
81
0
0
81
0
0
81
0
0
81
0
0
81
0
0
81
0
0
81
0
0
81
0
0
81
0
0
81
0
0
81
0
0
81
0
0
81
0
0
81
0
0
81
0
0
81
0
0
81
0
0
81
0
0
81
0
0
81
0
0
81
0
0
81
0
0
81
0
0
81
0
0
81
0
0
81
0
0
81
0
0
81
0
0
81
0
0
81
0
0
81
0
0
81
0
0
81
0
0
81
0
0
81
0
0
81
0
0
81
0
0
81
0
0
81
0
0
81
0
0
81
0
0
81
0
0
81
0
0
81
0
0
81
0
0
81
0
0
81
0
0
81
0
0
81
0
0
81
0
0
81
0
0
81
0
0
81
0
0
81
0
0
81
0
0
81
0
0
81
0
0
81
0
0
81
0
0
81
0
0
81
0
0
81
0
0
81
0
0
81
0
0
81
0
0
85
0
0
85
0
0
85
0
0
85
0
0
85
0
0
85
0
0
85
0
0
85
0
0
85
0
0
85
0
0
85
0
0
85
0
0
85
0
0
85
0
0
85
0
0
85
0
0
85
0
0
85
0
0
85
0
0
85
0
0
85
0
0
85
0
0
85
0
0
85
0
0
85
0
0
85
0
0
85
0
0
85
0
0
85
0
0
85
0
0
85
0
0
85
0
0
85
0
0
85
0
0
85
0
0
85
0
0
85
0
0
85
0
0
85
0
0
85
0
0
85
0
0
85
0
0
85
0
0
85
0
0
85
0
0
85
0
0
85
0
0
85
0
0
85
0
0
85
0
0
85
0
0
85
0
0
85
0
0
85
0
0
85
0
0
85
0
0
85
0
0
85
0
0
85
0
0
85
0
0
85
0
0
85
0
0
85
0
0
85
0
0
85
0
0
85
0
0
85
0
0
85
0
0
85
0
0
85
0
0
85
0
0
85
0
0
85
0
0
85
0
0
85
0
0
88
0
0
88
0
0
88
0
0
88
0
0
88
0
0
88
0
0
88
0
0
88
0
0
88
0
0
88
0
0
88
0
0
88
0
0
88
0
0
88
0
0
88
0
0
88
0
0
88
0
0
88
0
0
88
0
0
88
0
0
88
0
0
88
0
0
88
0
0
88
0
0
88
0
0
88
0
0
88
0
0
88
0
0
88
0
0
88
0
0
88
0
0
88
0
0
88
0
0
88
0
0
88
0
0
88
0
0
88
0
0
88
0
0
88
0
0
88
0
0
88
0
0
88
0
0
88
0
0
88
0
0
88
0
0
88
0
0
88
0
0
88
0
0
88
0
0
88
0
0
88
0
0
88
0
0
88
0
0
88
0
0
88
0
0
88
0
0
88
0
0
88
0
0
88
0
0
88
0
0
88
0
0
88
0
0
88
0
0
88
0
0
88
0
0
88
0
0
88
0
0
88
0
0
88
0
0
88
0
0
88
0
0
88
0
0
88
0
0
88
0
0
88
0
0
91
0
0
91
0
0
91
0
0
91
0
0
91
0
0
91
0
0
91
0
0
91
0
0
91
0
0
91
0
0
91
0
0
91
0
0
91
0
0
91
0
0
91
0
0
91
0
0
91
0
0
91
0
0
91
0
0
91
0
0
91
0
0
91
0
0
91
0
0
91
0
0
91
0
0
91
0
0
91
0
0
91
0
0
91
0
0
91
0
0
91
0
0
91
0
0
91
0
0
91
0
0
91
0
0
91
0
0
91
0
0
91
0
0
91
0
0
91
0
0
91
0
0
91
0
0
91
0
0
91
0
0
91
0
0
91
0
0
91
0
0
91
0
0
91
0
0
91
0
0
91
0
0
91
0
0
91
0
0
91
0
0
91
0
0
91
0
0
91
0
0
91
0
0
91
0
0
91
0
0
91
0
0
91
0
0
91
0
0
91
0
0
91
0
0
91
0
0
91
0
0
91
0
0
91
0
0
91
0
0
91
0
0
91
0
0
91
0
0
91
0
0
91
0
0
95
0
0
95
0
0
95
0
0
95
0
0
95
0
0
95
0
0
95
0
0
95
0
0
95
0
0
95
0
0
95
0
0
95
0
0
95
0
0
95
0
0
95
0
0
95
0
0
95
0
0
95
0
0
95
0
0
95
0
0
95
0
0
95
0
0
95
0
0
95
0
0
95
0
0
95
0
0
95
0
0
95
0
0
95
0
0
95
0
0
95
0
0
95
0
0
95
0
0
95
0
0
95
0
0
95
0
0
95
0
0
95
0
0
95
0
0
95
0
0
95
0
0
95
0
0
95
0
0
95
0
0
95
0
0
95
0
0
95
0
0
95
0
0
95
0
0
95
0
0
95
0
0
95
0
0
95
0
0
95
0
0
95
0
0
95
0
0
95
0
0
95
0
0
95
0
0
95
0
0
95
0
0
95
0
0
95
0
0
95
0
0
95
0
0
95
0
0
95
0
0
95
0
0
95
0
0
95
0
0
95
0
0
95
0
0
95
0
0
95
0
0
95
0
0
98
0
0
98
0
0
98
0
0
98
0
0
98
0
0
98
0
0
98
0
0
98
0
0
98
0
0
98
0
0
98
0
0
98
0
0
98
0
0
98
0
0
98
0
0
98
0
0
98
0
0
98
0
0
98
0
0
98
0
0
98
0
0
98
0
0
98
0
0
98
0
0
98
0
0
98
0
0
98
0
0
98
0
0
98
0
0
98
0
0
98
0
0
98
0
0
98
0
0
98
0
0
98
0
0
98
0
0
98
0
0
98
0
0
98
0
0
98
0
0
98
0
0
98
0
0
98
0
0
98
0
0
98
0
0
98
0
0
98
0
0
98
0
0
98
0
0
98
0
0
98
0
0
98
0
0
98
0
0
98
0
0
98
0
0
98
0
0
98
0
0
98
0
0
98
0
0
98
0
0
98
0
0
98
0
0
98
0
0
98
0
0
98
0
0
98
0
0
98
0
0
98
0
0
98
0
0
98
0
0
98
0
0
98
0
0
98
0
0
98
0
0
98
0
0
102
0
0
102
0
0
102
0
0
102
0
0
102
0
0
102
0
0
102
0
0
102
0
0
102
0
0
102
0
0
102
0
0
102
0
0
102
0
0
102
0
0
102
0
0
102
0
0
102
0
0
102
0
0
102
0
0
102
0
0
102
0
0
102
0
0
102
0
0
102
0
0
102
0
0
102
0
0
102
0
0
102
0
0
102
0
0
102
0
0
102
0
0
102
0
0
102
0
0
102
0
0
102
0
0
102
0
0
102
0
0
102
0
0
102
0
0
102
0
0
102
0
0
102
0
0
102
0
0
102
0
0
102
0
0
102
0
0
102
0
0
102
0
0
102
0
0
102
0
0
102
0
0
102
0
0
102
0
0
102
0
0
102
0
0
102
0
0
102
0
0
102
0
0
102
0
0
102
0
0
102
0
0
102
0
0
102
0
0
102
0
0
102
0
0
102
0
0
102
0
0
102
0
0
102
0
0
102
0
0
102
0
0
102
0
0
102
0
0
102
0
0
102
0
0
105
0
0
105
0
0
105
0
0
105
0
0
105
0
0
105
0
0
105
0
0
105
0
0
105
0
0
105
0
0
105
0
0
105
0
0
105
0
0
105
0
0
105
0
0
105
0
0
105
0
0
105
0
0
105
0
0
105
0
0
105
0
0
105
0
0
105
0
0
105
0
0
105
0
0
105
0
0
105
0
0
105
0
0
105
0
0
105
0
0
105
0
0
105
0
0
105
0
0
105
0
0
105
0
0
105
0
0
105
0
0
105
0
0
105
0
0
105
0
0
105
0
0
105
0
0
105
0
0
105
0
0
105
0
0
105
0
0
105
0
0
105
0
0
105
0
0
105
0
0
105
0
0
105
0
0
105
0
0
105
0
0
105
0
0
105
0
0
105
0
0
105
0
0
105
0
0
105
0
0
105
0
0
105
0
0
105
0
0
105
0
0
105
0
0
105
0
0
105
0
0
105
0
0
105
0
0
105
0
0
105
0
0
105
0
0
105
0
0
105
0
0
105
0
0
108
0
0
108
0
0
108
0
0
108
0
0
108
0
0
108
0
0
108
0
0
108
0
0
108
0
0
108
0
0
108
0
0
108
0
0
108
0
0
108
0
0
108
0
0
108
0
0
108
0
0
108
0
0
108
0
0
108
0
0
108
0
0
108
0
0
108
0
0
108
0
0
108
0
0
108
0
0
108
0
0
108
0
0
108
0
0
108
0
0
108
0
0
108
0
0
108
0
0
108
0
0
108
0
0
108
0
0
108
0
0
108
0
0
108
0
0
108
0
0
108
0
0
108
0
0
108
0
0
108
0
0
108
0
0
108
0
0
108
0
0
108
0
0
108
0
0
108
0
0
108
0
0
108
0
0
108
0
0
108
0
0
108
0
0
108
0
0
108
0
0
108
0
0
108
0
0
108
0
0
108
0
0
108
0
0
108
0
0
108
0
0
108
0
0
108
0
0
108
0
0
108
0
0
108
0
0
108
0
0
108
0
0
108
0
0
108
0
0
108
0
0
108
0
0
112
0
0
112
0
0
112
0
0
112
0
0
112
0
0
112
0
0
112
0
0
112
0
0
112
0
0
112
0
0
112
0
0
112
0
0
112
0
0
112
0
0
112
0
0
112
0
0
112
0
0
112
0
0
112
0
0
112
0
0
112
0
0
112
0
0
112
0
0
112
0
0
112
0
0
112
0
0
112
0
0
112
0
0
112
0
0
112
0
0
112
0
0
112
0
0
112
0
0
112
0
0
112
0
0
112
0
0
112
0
0
112
0
0
112
0
0
112
0
0
112
0
0
112
0
0
112
0
0
112
0
0
112
0
0
112
0
0
112
0
0
112
0
0
112
0
0
112
0
0
112
0
0
112
0
0
112
0
0
112
0
0
112
0
0
112
0
0
112
0
0
112
0
0
112
0
0
112
0
0
112
0
0
112
0
0
112
0
0
112
0
0
112
0
0
112
0
0
112
0
0
112
0
0
112
0
0
112
0
0
112
0
0
112
0
0
112
0
0
112
0
0
112
0
0
115
0
0
115
0
0
115
0
0
115
0
0
115
0
0
115
0
0
115
0
0
115
0
0
115
0
0
115
0
0
115
0
0
115
0
0
115
0
0
115
0
0
115
0
0
115
0
0
115
0
0
115
0
0
115
0
0
115
0
0
115
0
0
115
0
0
115
0
0
115
0
0
115
0
0
115
0
0
115
0
0
115
0
0
115
0
0
115
0
0
115
0
0
115
0
0
115
0
0
115
0
0
115
0
0
115
0
0
115
0
0
115
0
0
115
0
0
115
0
0
115
0
0
115
0
0
115
0
0
115
0
0
115
0
0
115
0
0
115
0
0
115
0
0
115
0
0
115
0
0
115
0
0
115
0
0
115
0
0
115
0
0
115
0
0
115
0
0
115
0
0
115
0
0
115
0
0
115
0
0
115
0
0
115
0
0
115
0
0
115
0
0
115
0
0
115
0
0
115
0
0
115
0
0
115
0
0
115
0
0
115
0
0
115
0
0
115
0
0
115
0
0
115
0
0
119
0
0
119
0
0
119
0
0
119
0
0
119
0
0
119
0
0
119
0
0
119
0
0
119
0
0
119
0
0
119
0
0
119
0
0
119
0
0
119
0
0
119
0
0
119
0
0
119
0
0
119
0
0
119
0
0
119
0
0
119
0
0
119
0
0
119
0
0
119
0
0
119
0
0
119
0
0
119
0
0
119
0
0
119
0
0
119
0
0
119
0
0
119
0
0
119
0
0
119
0
0
119
0
0
119
0
0
119
0
0
119
0
0
119
0
0
119
0
0
119
0
0
119
0
0
119
0
0
119
0
0
119
0
0
119
0
0
119
0
0
119
0
0
119
0
0
119
0
0
119
0
0
119
0
0
119
0
0
119
0
0
119
0
0
119
0
0
119
0
0
119
0
0
119
0
0
119
0
0
119
0
0
119
0
0
119
0
0
119
0
0
119
0
0
119
0
0
119
0
0
119
0
0
119
0
0
119
0
0
119
0
0
119
0
0
119
0
0
119
0
0
119
0
0
122
0
0
122
0
0
122
0
0
122
0
0
122
0
0
122
0
0
122
0
0
122
0
0
122
0
0
122
0
0
122
0
0
122
0
0
122
0
0
122
0
0
122
0
0
122
0
0
122
0
0
122
0
0
122
0
0
122
0
0
122
0
0
122
0
0
122
0
0
122
0
0
122
0
0
122
0
0
122
0
0
122
0
0
122
0
0
122
0
0
122
0
0
122
0
0
122
0
0
122
0
0
122
0
0
122
0
0
122
0
0
122
0
0
122
0
0
122
0
0
122
0
0
122
0
0
122
0
0
122
0
0
122
0
0
122
0
0
122
0
0
122
0
0
122
0
0
122
0
0
122
0
0
122
0
0
122
0
0
122
0
0
122
0
0
122
0
0
122
0
0
122
0
0
122
0
0
122
0
0
122
0
0
122
0
0
122
0
0
122
0
0
122
0
0
122
0
0
122
0
0
122
0
0
122
0
0
122
0
0
122
0
0
122
0
0
122
0
0
122
0
0
122
0
0
125
0
0
125
0
0
125
0
0
125
0
0
125
0
0
125
0
0
125
0
0
125
0
0
125
0
0
125
0
0
125
0
0
125
0
0
125
0
0
125
0
0
125
0
0
125
0
0
125
0
0
125
0
0
125
0
0
125
0
0
125
0
0
125
0
0
125
0
0
125
0
0
125
0
0
125
0
0
125
0
0
125
0
0
125
0
0
125
0
0
125
0
0
125
0
0
125
0
0
125
0
0
125
0
0
125
0
0
125
0
0
125
0
0
125
0
0
125
0
0
125
0
0
125
0
0
125
0
0
125
0
0
125
0
0
125
0
0
125
0
0
125
0
0
125
0
0
125
0
0
125
0
0
125
0
0
125
0
0
125
0
0
125
0
0
125
0
0
125
0
0
125
0
0
125
0
0
125
0
0
125
0
0
125
0
0
125
0
0
125
0
0
125
0
0
125
0
0
125
0
0
125
0
0
125
0
0
125
0
0
125
0
0
125
0
0
125
0
0
125
0
0
125
0
0
129
0
0
129
0
0
129
0
0
129
0
0
129
0
0
129
0
0
129
0
0
129
0
0
129
0
0
129
0
0
129
0
0
129
0
0
129
0
0
129
0
0
129
0
0
129
0
0
129
0
0
129
0
0
129
0
0
129
0
0
129
0
0
129
0
0
129
0
0
129
0
0
129
0
0
129
0
0
129
0
0
129
0
0
129
0
0
129
0
0
129
0
0
129
0
0
129
0
0
129
0
0
129
0
0
129
0
0
129
0
0
129
0
0
129
0
0
129
0
0
129
0
0
129
0
0
129
0
0
129
0
0
129
0
0
129
0
0
129
0
0
129
0
0
129
0
0
129
0
0
129
0
0
129
0
0
129
0
0
129
0
0
129
0
0
129
0
0
129
0
0
129
0
0
129
0
0
129
0
0
129
0
0
129
0
0
129
0
0
129
0
0
129
0
0
129
0
0
129
0
0
129
0
0
129
0
0
129
0
0
129
0
0
129
0
0
129
0
0
129
0
0
129
0
0
132
0
0
132
0
0
132
0
0
132
0
0
132
0
0
132
0
0
132
0
0
132
0
0
132
0
0
132
0
0
132
0
0
132
0
0
132
0
0
132
0
0
132
0
0
132
0
0
132
0
0
132
0
0
132
0
0
132
0
0
132
0
0
132
0
0
132
0
0
132
0
0
132
0
0
132
0
0
132
0
0
132
0
0
132
0
0
132
0
0
132
0
0
132
0
0
132
0
0
132
0
0
132
0
0
132
0
0
132
0
0
132
0
0
132
0
0
132
0
0
132
0
0
132
0
0
132
0
0
132
0
0
132
0
0
132
0
0
132
0
0
132
0
0
132
0
0
132
0
0
132
0
0
132
0
0
132
0
0
132
0
0
132
0
0
132
0
0
132
0
0
132
0
0
132
0
0
132
0
0
132
0
0
132
0
0
132
0
0
132
0
0
132
0
0
132
0
0
132
0
0
132
0
0
132
0
0
132
0
0
132
0
0
132
0
0
132
0
0
132
0
0
132
0
0
136
0
0
136
0
0
136
0
0
136
0
0
136
0
0
136
0
0
136
0
0
136
0
0
136
0
0
136
0
0
136
0
0
136
0
0
136
0
0
136
0
0
136
0
0
136
0
0
136
0
0
136
0
0
136
0
0
136
0
0
136
0
0
136
0
0
136
0
0
136
0
0
136
0
0
136
0
0
136
0
0
136
0
0
136
0
0
136
0
0
136
0
0
136
0
0
136
0
0
136
0
0
136
0
0
136
0
0
136
0
0
136
0
0
136
0
0
136
0
0
136
0
0
136
0
0
136
0
0
136
0
0
136
0
0
136
0
0
136
0
0
136
0
0
136
0
0
136
0
0
136
0
0
136
0
0
136
0
0
136
0
0
136
0
0
136
0
0
136
0
0
136
0
0
136
0
0
136
0
0
136
0
0
136
0
0
136
0
0
136
0
0
136
0
0
136
0
0
136
0
0
136
0
0
136
0
0
136
0
0
136
0
0
136
0
0
136
0
0
136
0
0
136
0
0
139
0
0
139
0
0
139
0
0
139
0
0
139
0
0
139
0
0
139
0
0
139
0
0
139
0
0
139
0
0
139
0
0
139
0
0
139
0
0
139
0
0
139
0
0
139
0
0
139
0
0
139
0
0
139
0
0
139
0
0
139
0
0
139
0
0
139
0
0
139
0
0
139
0
0
139
0
0
139
0
0
139
0
0
139
0
0
139
0
0
139
0
0
139
0
0
139
0
0
139
0
0
139
0
0
139
0
0
139
0
0
139
0
0
139
0
0
139
0
0
139
0
0
139
0
0
139
0
0
139
0
0
139
0
0
139
0
0
139
0
0
139
0
0
139
0
0
139
0
0
139
0
0
139
0
0
139
0
0
139
0
0
139
0
0
139
0
0
139
0
0
139
0
0
139
0
0
139
0
0
139
0
0
139
0
0
139
0
0
139
0
0
139
0
0
139
0
0
139
0
0
139
0
0
139
0
0
139
0
0
139
0
0
139
0
0
139
0
0
139
0
0
139
0
0
142
0
0
142
0
0
142
0
0
142
0
0
142
0
0
142
0
0
142
0
0
142
0
0
142
0
0
142
0
0
142
0
0
142
0
0
142
0
0
142
0
0
142
0
0
142
0
0
142
0
0
142
0
0
142
0
0
142
0
0
142
0
0
142
0
0
142
0
0
142
0
0
142
0
0
142
0
0
142
0
0
142
0
0
142
0
0
142
0
0
142
0
0
142
0
0
142
0
0
142
0
0
142
0
0
142
0
0
142
0
0
142
0
0
142
0
0
142
0
0
142
0
0
142
0
0
142
0
0
142
0
0
142
0
0
142
0
0
142
0
0
142
0
0
142
0
0
142
0
0
142
0
0
142
0
0
142
0
0
142
0
0
142
0
0
142
0
0
142
0
0
142
0
0
142
0
0
142
0
0
142
0
0
142
0
0
142
0
0
142
0
0
142
0
0
142
0
0
142
0
0
142
0
0
142
0
0
142
0
0
142
0
0
142
0
0
142
0
0
142
0
0
142
0
0
146
0
0
146
0
0
146
0
0
146
0
0
146
0
0
146
0
0
146
0
0
146
0
0
146
0
0
146
0
0
146
0
0
146
0
0
146
0
0
146
0
0
146
0
0
146
0
0
146
0
0
146
0
0
146
0
0
146
0
0
146
0
0
146
0
0
146
0
0
146
0
0
146
0
0
146
0
0
146
0
0
146
0
0
146
0
0
146
0
0
146
0
0
146
0
0
146
0
0
146
0
0
146
0
0
146
0
0
146
0
0
146
0
0
146
0
0
146
0
0
146
0
0
146
0
0
146
0
0
146
0
0
146
0
0
146
0
0
146
0
0
146
0
0
146
0
0
146
0
0
146
0
0
146
0
0
146
0
0
146
0
0
146
0
0
146
0
0
146
0
0
146
0
0
146
0
0
146
0
0
146
0
0
146
0
0
146
0
0
146
0
0
146
0
0
146
0
0
146
0
0
146
0
0
146
0
0
146
0
0
146
0
0
146
0
0
146
0
0
146
0
0
146
0
0
149
0
0
149
0
0
149
0
0
149
0
0
149
0
0
149
0
0
149
0
0
149
0
0
149
0
0
149
0
0
149
0
0
149
0
0
149
0
0
149
0
0
149
0
0
149
0
0
149
0
0
149
0
0
149
0
0
149
0
0
149
0
0
149
0
0
149
0
0
149
0
0
149
0
0
149
0
0
149
0
0
149
0
0
149
0
0
149
0
0
149
0
0
149
0
0
149
0
0
149
0
0
149
0
0
149
0
0
149
0
0
149
0
0
149
0
0
149
0
0
149
0
0
149
0
0
149
0
0
149
0
0
149
0
0
149
0
0
149
0
0
149
0
0
149
0
0
149
0
0
149
0
0
149
0
0
149
0
0
149
0
0
149
0
0
149
0
0
149
0
0
149
0
0
149
0
0
149
0
0
149
0
0
149
0
0
149
0
0
149
0
0
149
0
0
149
0
0
149
0
0
149
0
0
149
0
0
149
0
0
149
0
0
149
0
0
149
0
0
149
0
0
149
0
0
153
0
0
153
0
0
153
0
0
153
0
0
153
0
0
153
0
0
153
0
0
153
0
0
153
0
0
153
0
0
153
0
0
153
0
0
153
0
0
153
0
0
153
0
0
153
0
0
153
0
0
153
0
0
153
0
0
153
0
0
153
0
0
153
0
0
153
0
0
153
0
0
153
0
0
153
0
0
153
0
0
153
0
0
153
0
0
153
0
0
153
0
0
153
0
0
153
0
0
153
0
0
153
0
0
153
0
0
153
0
0
153
0
0
153
0
0
153
0
0
153
0
0
153
0
0
153
0
0
153
0
0
153
0
0
153
0
0
153
0
0
153
0
0
153
0
0
153
0
0
153
0
0
153
0
0
153
0
0
153
0
0
153
0
0
153
0
0
153
0
0
153
0
0
153
0
0
153
0
0
153
0
0
153
0
0
153
0
0
153
0
0
153
0
0
153
0
0
153
0
0
153
0
0
153
0
0
153
0
0
153
0
0
153
0
0
153
0
0
153
0
0
153
0
0
156
0
0
156
0
0
156
0
0
156
0
0
156
0
0
156
0
0
156
0
0
156
0
0
156
0
0
156
0
0
156
0
0
156
0
0
156
0
0
156
0
0
156
0
0
156
0
0
156
0
0
156
0
0
156
0
0
156
0
0
156
0
0
156
0
0
156
0
0
156
0
0
156
0
0
156
0
0
156
0
0
156
0
0
156
0
0
156
0
0
156
0
0
156
0
0
156
0
0
156
0
0
156
0
0
156
0
0
156
0
0
156
0
0
156
0
0
156
0
0
156
0
0
156
0
0
156
0
0
156
0
0
156
0
0
156
0
0
156
0
0
156
0
0
156
0
0
156
0
0
156
0
0
156
0
0
156
0
0
156
0
0
156
0
0
156
0
0
156
0
0
156
0
0
156
0
0
156
0
0
156
0
0
156
0
0
156
0
0
156
0
0
156
0
0
156
0
0
156
0
0
156
0
0
156
0
0
156
0
0
156
0
0
156
0
0
156
0
0
156
0
0
156
0
0
159
0
0
159
0
0
159
0
0
159
0
0
159
0
0
159
0
0
159
0
0
159
0
0
159
0
0
159
0
0
159
0
0
159
0
0
159
0
0
159
0
0
159
0
0
159
0
0
159
0
0
159
0
0
159
0
0
159
0
0
159
0
0
159
0
0
159
0
0
159
0
0
159
0
0
159
0
0
159
0
0
159
0
0
159
0
0
159
0
0
159
0
0
159
0
0
159
0
0
159
0
0
159
0
0
159
0
0
159
0
0
159
0
0
159
0
0
159
0
0
159
0
0
159
0
0
159
0
0
159
0
0
159
0
0
159
0
0
159
0
0
159
0
0
159
0
0
159
0
0
159
0
0
159
0
0
159
0
0
159
0
0
159
0
0
159
0
0
159
0
0
159
0
0
159
0
0
159
0
0
159
0
0
159
0
0
159
0
0
159
0
0
159
0
0
159
0
0
159
0
0
159
0
0
159
0
0
159
0
0
159
0
0
159
0
0
159
0
0
159
0
0
159
0
0
163
0
0
163
0
0
163
0
0
163
0
0
163
0
0
163
0
0
163
0
0
163
0
0
163
0
0
163
0
0
163
0
0
163
0
0
163
0
0
163
0
0
163
0
0
163
0
0
163
0
0
163
0
0
163
0
0
163
0
0
163
0
0
163
0
0
163
0
0
163
0
0
163
0
0
163
0
0
163
0
0
163
0
0
163
0
0
163
0
0
163
0
0
163
0
0
163
0
0
163
0
0
163
0
0
163
0
0
163
0
0
163
0
0
163
0
0
163
0
0
163
0
0
163
0
0
163
0
0
163
0
0
163
0
0
163
0
0
163
0
0
163
0
0
163
0
0
163
0
0
163
0
0
163
0
0
163
0
0
163
0
0
163
0
0
163
0
0
163
0
0
163
0
0
163
0
0
163
0
0
163
0
0
163
0
0
163
0
0
163
0
0
163
0
0
163
0
0
163
0
0
163
0
0
163
0
0
163
0
0
163
0
0
163
0
0
163
0
0
163
0
0
163
0
0
166
0
0
166
0
0
166
0
0
166
0
0
166
0
0
166
0
0
166
0
0
166
0
0
166
0
0
166
0
0
166
0
0
166
0
0
166
0
0
166
0
0
166
0
0
166
0
0
166
0
0
166
0
0
166
0
0
166
0
0
166
0
0
166
0
0
166
0
0
166
0
0
166
0
0
166
0
0
166
0
0
166
0
0
166
0
0
166
0
0
166
0
0
166
0
0
166
0
0
166
0
0
166
0
0
166
0
0
166
0
0
166
0
0
166
0
0
166
0
0
166
0
0
166
0
0
166
0
0
166
0
0
166
0
0
166
0
0
166
0
0
166
0
0
166
0
0
166
0
0
166
0
0
166
0
0
166
0
0
166
0
0
166
0
0
166
0
0
166
0
0
166
0
0
166
0
0
166
0
0
166
0
0
166
0
0
166
0
0
166
0
0
166
0
0
166
0
0
166
0
0
166
0
0
166
0
0
166
0
0
166
0
0
166
0
0
166
0
0
166
0
0
166
0
0
170
0
0
170
0
0
170
0
0
170
0
0
170
0
0
170
0
0
170
0
0
170
0
0
170
0
0
170
0
0
170
0
0
170
0
0
170
0
0
170
0
0
170
0
0
170
0
0
170
0
0
170
0
0
170
0
0
170
0
0
170
0
0
170
0
0
170
0
0
170
0
0
170
0
0
170
0
0
170
0
0
170
0
0
170
0
0
170
0
0
170
0
0
170
0
0
170
0
0
170
0
0
170
0
0
170
0
0
170
0
0
170
0
0
170
0
0
170
0
0
170
0
0
170
0
0
170
0
0
170
0
0
170
0
0
170
0
0
170
0
0
170
0
0
170
0
0
170
0
0
170
0
0
170
0
0
170
0
0
170
0
0
170
0
0
170
0
0
170
0
0
170
0
0
170
0
0
170
0
0
170
0
0
170
0
0
170
0
0
170
0
0
170
0
0
170
0
0
170
0
0
170
0
0
170
0
0
170
0
0
170
0
0
170
0
0
170
0
0
170
0
0
170
0
0
173
0
0
173
0
0
173
0
0
173
0
0
173
0
0
173
0
0
173
0
0
173
0
0
173
0
0
173
0
0
173
0
0
173
0
0
173
0
0
173
0
0
173
0
0
173
0
0
173
0
0
173
0
0
173
0
0
173
0
0
173
0
0
173
0
0
173
0
0
173
0
0
173
0
0
173
0
0
173
0
0
173
0
0
173
0
0
173
0
0
173
0
0
173
0
0
173
0
0
173
0
0
173
0
0
173
0
0
173
0
0
173
0
0
173
0
0
173
0
0
173
0
0
173
0
0
173
0
0
173
0
0
173
0
0
173
0
0
173
0
0
173
0
0
173
0
0
173
0
0
173
0
0
173
0
0
173
0
0
173
0
0
173
0
0
173
0
0
173
0
0
173
0
0
173
0
0
173
0
0
173
0
0
173
0
0
173
0
0
173
0
0
173
0
0
173
0
0
173
0
0
173
0
0
173
0
0
173
0
0
173
0
0
173
0
0
173
0
0
173
0
0
173
0
0
176
0
0
176
0
0
176
0
0
176
0
0
176
0
0
176
0
0
176
0
0
176
0
0
176
0
0
176
0
0
176
0
0
176
0
0
176
0
0
176
0
0
176
0
0
176
0
0
176
0
0
176
0
0
176
0
0
176
0
0
176
0
0
176
0
0
176
0
0
176
0
0
176
0
0
176
0
0
176
0
0
176
0
0
176
0
0
176
0
0
176
0
0
176
0
0
176
0
0
176
0
0
176
0
0
176
0
0
176
0
0
176
0
0
176
0
0
176
0
0
176
0
0
176
0
0
176
0
0
176
0
0
176
0
0
176
0
0
176
0
0
176
0
0
176
0
0
176
0
0
176
0
0
176
0
0
176
0
0
176
0
0
176
0
0
176
0
0
176
0
0
176
0
0
176
0
0
176
0
0
176
0
0
176
0
0
176
0
0
176
0
0
176
0
0
176
0
0
176
0
0
176
0
0
176
0
0
176
0
0
176
0
0
176
0
0
176
0
0
176
0
0
176
0
0
180
0
0
180
0
0
180
0
0
180
0
0
180
0
0
180
0
0
180
0
0
180
0
0
180
0
0
180
0
0
180
0
0
180
0
0
180
0
0
180
0
0
180
0
0
180
0
0
180
0
0
180
0
0
180
0
0
180
0
0
180
0
0
180
0
0
180
0
0
180
0
0
180
0
0
180
0
0
180
0
0
180
0
0
180
0
0
180
0
0
180
0
0
180
0
0
180
0
0
180
0
0
180
0
0
180
0
0
180
0
0
180
0
0
180
0
0
180
0
0
180
0
0
180
0
0
180
0
0
180
0
0
180
0
0
180
0
0
180
0
0
180
0
0
180
0
0
180
0
0
180
0
0
180
0
0
180
0
0
180
0
0
180
0
0
180
0
0
180
0
0
180
0
0
180
0
0
180
0
0
180
0
0
180
0
0
180
0
0
180
0
0
180
0
0
180
0
0
180
0
0
180
0
0
180
0
0
180
0
0
180
0
0
180
0
0
180
0
0
180
0
0
180
0
0
183
0
0
183
0
0
183
0
0
183
0
0
183
0
0
183
0
0
183
0
0
183
0
0
183
0
0
183
0
0
183
0
0
183
0
0
183
0
0
183
0
0
183
0
0
183
0
0
183
0
0
183
0
0
183
0
0
183
0
0
183
0
0
183
0
0
183
0
0
183
0
0
183
0
0
183
0
0
183
0
0
183
0
0
183
0
0
183
0
0
183
0
0
183
0
0
183
0
0
183
0
0
183
0
0
183
0
0
183
0
0
183
0
0
183
0
0
183
0
0
183
0
0
183
0
0
183
0
0
183
0
0
183
0
0
183
0
0
183
0
0
183
0
0
183
0
0
183
0
0
183
0
0
183
0
0
183
0
0
183
0
0
183
0
0
183
0
0
183
0
0
183
0
0
183
0
0
183
0
0
183
0
0
183
0
0
183
0
0
183
0
0
183
0
0
183
0
0
183
0
0
183
0
0
183
0
0
183
0
0
183
0
0
183
0
0
183
0
0
183
0
0
183
0
0
187
0
0
187
0
0
187
0
0
187
0
0
187
0
0
187
0
0
187
0
0
187
0
0
187
0
0
187
0
0
187
0
0
187
0
0
187
0
0
187
0
0
187
0
0
187
0
0
187
0
0
187
0
0
187
0
0
187
0
0
187
0
0
187
0
0
187
0
0
187
0
0
187
0
0
187
0
0
187
0
0
187
0
0
187
0
0
187
0
0
187
0
0
187
0
0
187
0
0
187
0
0
187
0
0
187
0
0
187
0
0
187
0
0
187
0
0
187
0
0
187
0
0
187
0
0
187
0
0
187
0
0
187
0
0
187
0
0
187
0
0
187
0
0
187
0
0
187
0
0
187
0
0
187
0
0
187
0
0
187
0
0
187
0
0
187
0
0
187
0
0
187
0
0
187
0
0
187
0
0
187
0
0
187
0
0
187
0
0
187
0
0
187
0
0
187
0
0
187
0
0
187
0
0
187
0
0
187
0
0
187
0
0
187
0
0
187
0
0
187
0
0
187
0
0
190
0
0
190
0
0
190
0
0
190
0
0
190
0
0
190
0
0
190
0
0
190
0
0
190
0
0
190
0
0
190
0
0
190
0
0
190
0
0
190
0
0
190
0
0
190
0
0
190
0
0
190
0
0
190
0
0
190
0
0
190
0
0
190
0
0
190
0
0
190
0
0
190
0
0
190
0
0
190
0
0
190
0
0
190
0
0
190
0
0
190
0
0
190
0
0
190
0
0
190
0
0
190
0
0
190
0
0
190
0
0
190
0
0
190
0
0
190
0
0
190
0
0
190
0
0
190
0
0
190
0
0
190
0
0
190
0
0
190
0
0
190
0
0
190
0
0
190
0
0
190
0
0
190
0
0
190
0
0
190
0
0
190
0
0
190
0
0
190
0
0
190
0
0
190
0
0
190
0
0
190
0
0
190
0
0
190
0
0
190
0
0
190
0
0
190
0
0
190
0
0
190
0
0
190
0
0
190
0
0
190
0
0
190
0
0
190
0
0
190
0
0
190
0
0
193
0
0
193
0
0
193
0
0
193
0
0
193
0
0
193
0
0
193
0
0
193
0
0
193
0
0
193
0
0
193
0
0
193
0
0
193
0
0
193
0
0
193
0
0
193
0
0
193
0
0
193
0
0
193
0
0
193
0
0
193
0
0
193
0
0
193
0
0
193
0
0
193
0
0
193
0
0
193
0
0
193
0
0
193
0
0
193
0
0
193
0
0
193
0
0
193
0
0
193
0
0
193
0
0
193
0
0
193
0
0
193
0
0
193
0
0
193
0
0
193
0
0
193
0
0
193
0
0
193
0
0
193
0
0
193
0
0
193
0
0
193
0
0
193
0
0
193
0
0
193
0
0
193
0
0
193
0
0
193
0
0
193
0
0
193
0
0
193
0
0
193
0
0
193
0
0
193
0
0
193
0
0
193
0
0
193
0
0
193
0
0
193
0
0
193
0
0
193
0
0
193
0
0
193
0
0
193
0
0
193
0
0
193
0
0
193
0
0
193
0
0
193
0
0
197
0
0
197
0
0
197
0
0
197
0
0
197
0
0
197
0
0
197
0
0
197
0
0
197
0
0
197
0
0
197
0
0
197
0
0
197
0
0
197
0
0
197
0
0
197
0
0
197
0
0
197
0
0
197
0
0
197
0
0
197
0
0
197
0
0
197
0
0
197
0
0
197
0
0
197
0
0
197
0
0
197
0
0
197
0
0
197
0
0
197
0
0
197
0
0
197
0
0
197
0
0
197
0
0
197
0
0
197
0
0
197
0
0
197
0
0
197
0
0
197
0
0
197
0
0
197
0
0
197
0
0
197
0
0
197
0
0
197
0
0
197
0
0
197
0
0
197
0
0
197
0
0
197
0
0
197
0
0
197
0
0
197
0
0
197
0
0
197
0
0
197
0
0
197
0
0
197
0
0
197
0
0
197
0
0
197
0
0
197
0
0
197
0
0
197
0
0
197
0
0
197
0
0
197
0
0
197
0
0
197
0
0
197
0
0
197
0
0
197
0
0
197
0
0
200
0
0
200
0
0
200
0
0
200
0
0
200
0
0
200
0
0
200
0
0
200
0
0
200
0
0
200
0
0
200
0
0
200
0
0
200
0
0
200
0
0
200
0
0
200
0
0
200
0
0
200
0
0
200
0
0
200
0
0
200
0
0
200
0
0
200
0
0
200
0
0
200
0
0
200
0
0
200
0
0
200
0
0
200
0
0
200
0
0
200
0
0
200
0
0
200
0
0
200
0
0
200
0
0
200
0
0
200
0
0
200
0
0
200
0
0
200
0
0
200
0
0
200
0
0
200
0
0
200
0
0
200
0
0
200
0
0
200
0
0
200
0
0
200
0
0
200
0
0
200
0
0
200
0
0
200
0
0
200
0
0
200
0
0
200
0
0
200
0
0
200
0
0
200
0
0
200
0
0
200
0
0
200
0
0
200
0
0
200
0
0
200
0
0
200
0
0
200
0
0
200
0
0
200
0
0
200
0
0
200
0
0
200
0
0
200
0
0
200
0
0
200
0
0
204
0
0
204
0
0
204
0
0
204
0
0
204
0
0
204
0
0
204
0
0
204
0
0
204
0
0
204
0
0
204
0
0
204
0
0
204
0
0
204
0
0
204
0
0
204
0
0
204
0
0
204
0
0
204
0
0
204
0
0
204
0
0
204
0
0
204
0
0
204
0
0
204
0
0
204
0
0
204
0
0
204
0
0
204
0
0
204
0
0
204
0
0
204
0
0
204
0
0
204
0
0
204
0
0
204
0
0
204
0
0
204
0
0
204
0
0
204
0
0
204
0
0
204
0
0
204
0
0
204
0
0
204
0
0
204
0
0
204
0
0
204
0
0
204
0
0
204
0
0
204
0
0
204
0
0
204
0
0
204
0
0
204
0
0
204
0
0
204
0
0
204
0
0
204
0
0
204
0
0
204
0
0
204
0
0
204
0
0
204
0
0
204
0
0
204
0
0
204
0
0
204
0
0
204
0
0
204
0
0
204
0
0
204
0
0
204
0
0
204
0
0
204
0
0
207
0
0
207
0
0
207
0
0
207
0
0
207
0
0
207
0
0
207
0
0
207
0
0
207
0
0
207
0
0
207
0
0
207
0
0
207
0
0
207
0
0
207
0
0
207
0
0
207
0
0
207
0
0
207
0
0
207
0
0
207
0
0
207
0
0
207
0
0
207
0
0
207
0
0
207
0
0
207
0
0
207
0
0
207
0
0
207
0
0
207
0
0
207
0
0
207
0
0
207
0
0
207
0
0
207
0
0
207
0
0
207
0
0
207
0
0
207
0
0
207
0
0
207
0
0
207
0
0
207
0
0
207
0
0
207
0
0
207
0
0
207
0
0
207
0
0
207
0
0
207
0
0
207
0
0
207
0
0
207
0
0
207
0
0
207
0
0
207
0
0
207
0
0
207
0
0
207
0
0
207
0
0
207
0
0
207
0
0
207
0
0
207
0
0
207
0
0
207
0
0
207
0
0
207
0
0
207
0
0
207
0
0
207
0
0
207
0
0
207
0
0
207
0
0
210
0
0
210
0
0
210
0
0
210
0
0
210
0
0
210
0
0
210
0
0
210
0
0
210
0
0
210
0
0
210
0
0
210
0
0
210
0
0
210
0
0
210
0
0
210
0
0
210
0
0
210
0
0
210
0
0
210
0
0
210
0
0
210
0
0
210
0
0
210
0
0
210
0
0
210
0
0
210
0
0
210
0
0
210
0
0
210
0
0
210
0
0
210
0
0
210
0
0
210
0
0
210
0
0
210
0
0
210
0
0
210
0
0
210
0
0
210
0
0
210
0
0
210
0
0
210
0
0
210
0
0
210
0
0
210
0
0
210
0
0
210
0
0
210
0
0
210
0
0
210
0
0
210
0
0
210
0
0
210
0
0
210
0
0
210
0
0
210
0
0
210
0
0
210
0
0
210
0
0
210
0
0
210
0
0
210
0
0
210
0
0
210
0
0
210
0
0
210
0
0
210
0
0
210
0
0
210
0
0
210
0
0
210
0
0
210
0
0
210
0
0
210
0
0
214
0
0
214
0
0
214
0
0
214
0
0
214
0
0
214
0
0
214
0
0
214
0
0
214
0
0
214
0
0
214
0
0
214
0
0
214
0
0
214
0
0
214
0
0
214
0
0
214
0
0
214
0
0
214
0
0
214
0
0
214
0
0
214
0
0
214
0
0
214
0
0
214
0
0
214
0
0
214
0
0
214
0
0
214
0
0
214
0
0
214
0
0
214
0
0
214
0
0
214
0
0
214
0
0
214
0
0
214
0
0
214
0
0
214
0
0
214
0
0
214
0
0
214
0
0
214
0
0
214
0
0
214
0
0
214
0
0
214
0
0
214
0
0
214
0
0
214
0
0
214
0
0
214
0
0
214
0
0
214
0
0
214
0
0
214
0
0
214
0
0
214
0
0
214
0
0
214
0
0
214
0
0
214
0
0
214
0
0
214
0
0
214
0
0
214
0
0
214
0
0
214
0
0
214
0
0
214
0
0
214
0
0
214
0
0
214
0
0
214
0
0
214
0
0
217
0
0
217
0
0
217
0
0
217
0
0
217
0
0
217
0
0
217
0
0
217
0
0
217
0
0
217
0
0
217
0
0
217
0
0
217
0
0
217
0
0
217
0
0
217
0
0
217
0
0
217
0
0
217
0
0
217
0
0
217
0
0
217
0
0
217
0
0
217
0
0
217
0
0
217
0
0
217
0
0
217
0
0
217
0
0
217
0
0
217
0
0
217
0
0
217
0
0
217
0
0
217
0
0
217
0
0
217
0
0
217
0
0
217
0
0
217
0
0
217
0
0
217
0
0
217
0
0
217
0
0
217
0
0
217
0
0
217
0
0
217
0
0
217
0
0
217
0
0
217
0
0
217
0
0
217
0
0
217
0
0
217
0
0
217
0
0
217
0
0
217
0
0
217
0
0
217
0
0
217
0
0
217
0
0
217
0
0
217
0
0
217
0
0
217
0
0
217
0
0
217
0
0
217
0
0
217
0
0
217
0
0
217
0
0
217
0
0
217
0
0
217
0
0
221
0
0
221
0
0
221
0
0
221
0
0
221
0
0
221
0
0
221
0
0
221
0
0
221
0
0
221
0
0
221
0
0
221
0
0
221
0
0
221
0
0
221
0
0
221
0
0
221
0
0
221
0
0
221
0
0
221
0
0
221
0
0
221
0
0
221
0
0
221
0
0
221
0
0
221
0
0
221
0
0
221
0
0
221
0
0
221
0
0
221
0
0
221
0
0
221
0
0
221
0
0
221
0
0
221
0
0
221
0
0
221
0
0
221
0
0
221
0
0
221
0
0
221
0
0
221
0
0
221
0
0
221
0
0
221
0
0
221
0
0
221
0
0
221
0
0
221
0
0
221
0
0
221
0
0
221
0
0
221
0
0
221
0
0
221
0
0
221
0
0
221
0
0
221
0
0
221
0
0
221
0
0
221
0
0
221
0
0
221
0
0
221
0
0
221
0
0
221
0
0
221
0
0
221
0
0
221
0
0
221
0
0
221
0
0
221
0
0
221
0
0
221
0
0
224
0
0
224
0
0
224
0
0
224
0
0
224
0
0
224
0
0
224
0
0
224
0
0
224
0
0
224
0
0
224
0
0
224
0
0
224
0
0
224
0
0
224
0
0
224
0
0
224
0
0
224
0
0
224
0
0
224
0
0
224
0
0
224
0
0
224
0
0
224
0
0
224
0
0
224
0
0
224
0
0
224
0
0
224
0
0
224
0
0
224
0
0
224
0
0
224
0
0
224
0
0
224
0
0
224
0
0
224
0
0
224
0
0
224
0
0
224
0
0
224
0
0
224
0
0
224
0
0
224
0
0
224
0
0
224
0
0
224
0
0
224
0
0
224
0
0
224
0
0
224
0
0
224
0
0
224
0
0
224
0
0
224
0
0
224
0
0
224
0
0
224
0
0
224
0
0
224
0
0
224
0
0
224
0
0
224
0
0
224
0
0
224
0
0
224
0
0
224
0
0
224
0
0
224
0
0
224
0
0
224
0
0
224
0
0
224
0
0
224
0
0
224
0
0
227
0
0
227
0
0
227
0
0
227
0
0
227
0
0
227
0
0
227
0
0
227
0
0
227
0
0
227
0
0
227
0
0
227
0
0
227
0
0
227
0
0
227
0
0
227
0
0
227
0
0
227
0
0
227
0
0
227
0
0
227
0
0
227
0
0
227
0
0
227
0
0
227
0
0
227
0
0
227
0
0
227
0
0
227
0
0
227
0
0
227
0
0
227
0
0
227
0
0
227
0
0
227
0
0
227
0
0
227
0
0
227
0
0
227
0
0
227
0
0
227
0
0
227
0
0
227
0
0
227
0
0
227
0
0
227
0
0
227
0
0
227
0
0
227
0
0
227
0
0
227
0
0
227
0
0
227
0
0
227
0
0
227
0
0
227
0
0
227
0
0
227
0
0
227
0
0
227
0
0
227
0
0
227
0
0
227
0
0
227
0
0
227
0
0
227
0
0
227
0
0
227
0
0
227
0
0
227
0
0
227
0
0
227
0
0
227
0
0
227
0
0
227
0
0
231
0
0
231
0
0
231
0
0
231
0
0
231
0
0
231
0
0
231
0
0
231
0
0
231
0
0
231
0
0
231
0
0
231
0
0
231
0
0
231
0
0
231
0
0
231
0
0
231
0
0
231
0
0
231
0
0
231
0
0
231
0
0
231
0
0
231
0
0
231
0
0
231
0
0
231
0
0
231
0
0
231
0
0
231
0
0
231
0
0
231
0
0
231
0
0
231
0
0
231
0
0
231
0
0
231
0
0
231
0
0
231
0
0
231
0
0
231
0
0
231
0
0
231
0
0
231
0
0
231
0
0
231
0
0
231
0
0
231
0
0
231
0
0
231
0
0
231
0
0
231
0
0
231
0
0
231
0
0
231
0
0
231
0
0
231
0
0
231
0
0
231
0
0
231
0
0
231
0
0
231
0
0
231
0
0
231
0
0
231
0
0
231
0
0
231
0
0
231
0
0
231
0
0
231
0
0
231
0
0
231
0
0
231
0
0
231
0
0
231
0
0
231
0
0
234
0
0
234
0
0
234
0
0
234
0
0
234
0
0
234
0
0
234
0
0
234
0
0
234
0
0
234
0
0
234
0
0
234
0
0
234
0
0
234
0
0
234
0
0
234
0
0
234
0
0
234
0
0
234
0
0
234
0
0
234
0
0
234
0
0
234
0
0
234
0
0
234
0
0
234
0
0
234
0
0
234
0
0
234
0
0
234
0
0
234
0
0
234
0
0
234
0
0
234
0
0
234
0
0
234
0
0
234
0
0
234
0
0
234
0
0
234
0
0
234
0
0
234
0
0
234
0
0
234
0
0
234
0
0
234
0
0
234
0
0
234
0
0
234
0
0
234
0
0
234
0
0
234
0
0
234
0
0
234
0
0
234
0
0
234
0
0
234
0
0
234
0
0
234
0
0
234
0
0
234
0
0
234
0
0
234
0
0
234
0
0
234
0
0
234
0
0
234
0
0
234
0
0
234
0
0
234
0
0
234
0
0
234
0
0
234
0
0
234
0
0
234
0
0
238
0
0
238
0
0
238
0
0
238
0
0
238
0
0
238
0
0
238
0
0
238
0
0
238
0
0
238
0
0
238
0
0
238
0
0
238
0
0
238
0
0
238
0
0
238
0
0
238
0
0
238
0
0
238
0
0
238
0
0
238
0
0
238
0
0
238
0
0
238
0
0
238
0
0
238
0
0
238
0
0
238
0
0
238
0
0
238
0
0
238
0
0
238
0
0
238
0
0
238
0
0
238
0
0
238
0
0
238
0
0
238
0
0
238
0
0
238
0
0
238
0
0
238
0
0
238
0
0
238
0
0
238
0
0
238
0
0
238
0
0
238
0
0
238
0
0
238
0
0
238
0
0
238
0
0
238
0
0
238
0
0
238
0
0
238
0
0
238
0
0
238
0
0
238
0
0
238
0
0
238
0
0
238
0
0
238
0
0
238
0
0
238
0
0
238
0
0
238
0
0
238
0
0
238
0
0
238
0
0
238
0
0
238
0
0
238
0
0
238
0
0
238
0
0
241
0
0
241
0
0
241
0
0
241
0
0
241
0
0
241
0
0
241
0
0
241
0
0
241
0
0
241
0
0
241
0
0
241
0
0
241
0
0
241
0
0
241
0
0
241
0
0
241
0
0
241
0
0
241
0
0
241
0
0
241
0
0
241
0
0
241
0
0
241
0
0
241
0
0
241
0
0
241
0
0
241
0
0
241
0
0
241
0
0
241
0
0
241
0
0
241
0
0
241
0
0
241
0
0
241
0
0
241
0
0
241
0
0
241
0
0
241
0
0
241
0
0
241
0
0
241
0
0
241
0
0
241
0
0
241
0
0
241
0
0
241
0
0
241
0
0
241
0
0
241
0
0
241
0
0
241
0
0
241
0
0
241
0
0
241
0
0
241
0
0
241
0
0
241
0
0
241
0
0
241
0
0
241
0
0
241
0
0
241
0
0
241
0
0
241
0
0
241
0
0
241
0
0
241
0
0
241
0
0
241
0
0
241
0
0
241
0
0
241
0
0
241
0
0
244
0
0
244
0
0
244
0
0
244
0
0
244
0
0
244
0
0
244
0
0
244
0
0
244
0
0
244
0
0
244
0
0
244
0
0
244
0
0
244
0
0
244
0
0
244
0
0
244
0
0
244
0
0
244
0
0
244
0
0
244
0
0
244
0
0
244
0
0
244
0
0
244
0
0
244
0
0
244
0
0
244
0
0
244
0
0
244
0
0
244
0
0
244
0
0
244
0
0
244
0
0
244
0
0
244
0
0
244
0
0
244
0
0
244
0
0
244
0
0
244
0
0
244
0
0
244
0
0
244
0
0
244
0
0
244
0
0
244
0
0
244
0
0
244
0
0
244
0
0
244
0
0
244
0
0
244
0
0
244
0
0
244
0
0
244
0
0
244
0
0
244
0
0
244
0
0
244
0
0
244
0
0
244
0
0
244
0
0
244
0
0
244
0
0
244
0
0
244
0
0
244
0
0
244
0
0
244
0
0
244
0
0
244
0
0
244
0
0
244
0
0
244
0
0
248
0
0
248
0
0
248
0
0
248
0
0
248
0
0
248
0
0
248
0
0
248
0
0
248
0
0
248
0
0
248
0
0
248
0
0
248
0
0
248
0
0
248
0
0
248
0
0
248
0
0
248
0
0
248
0
0
248
0
0
248
0
0
248
0
0
248
0
0
248
0
0
248
0
0
248
0
0
248
0
0
248
0
0
248
0
0
248
0
0
248
0
0
248
0
0
248
0
0
248
0
0
248
0
0
248
0
0
248
0
0
248
0
0
248
0
0
248
0
0
248
0
0
248
0
0
248
0
0
248
0
0
248
0
0
248
0
0
248
0
0
248
0
0
248
0
0
248
0
0
248
0
0
248
0
0
248
0
0
248
0
0
248
0
0
248
0
0
248
0
0
248
0
0
248
0
0
248
0
0
248
0
0
248
0
0
248
0
0
248
0
0
248
0
0
248
0
0
248
0
0
248
0
0
248
0
0
248
0
0
248
0
0
248
0
0
248
0
0
248
0
0
248
0
0
251
0
0
251
0
0
251
0
0
251
0
0
251
0
0
251
0
0
251
0
0
251
0
0
251
0
0
251
0
0
251
0
0
251
0
0
251
0
0
251
0
0
251
0
0
251
0
0
251
0
0
251
0
0
251
0
0
251
0
0
251
0
0
251
0
0
251
0
0
251
0
0
251
0
0
251
0
0
251
0
0
251
0
0
251
0
0
251
0
0
251
0
0
251
0
0
251
0
0
251
0
0
251
0
0
251
0
0
251
0
0
251
0
0
251
0
0
251
0
0
251
0
0
251
0
0
251
0
0
251
0
0
251
0
0
251
0
0
251
0
0
251
0
0
251
0
0
251
0
0
251
0
0
251
0
0
251
0
0
251
0
0
251
0
0
251
0
0
251
0
0
251
0
0
251
0
0
251
0
0
251
0
0
251
0
0
251
0
0
251
0
0
251
0
0
251
0
0
251
0
0
251
0
0
251
0
0
251
0
0
251
0
0
251
0
0
251
0
0
251
0
0
251
0
0
